<svg xmlns="http://www.w3.org/2000/svg" version="1.1" xmlns:xlink="http://www.w3.org/1999/xlink" xmlns:svgjs="http://svgjs.dev/svgjs" width="400" height="400"><svg width="400" height="400" viewBox="0 0 400 400" fill="none" xmlns="http://www.w3.org/2000/svg">
<rect width="400" height="400" rx="40" fill="white"></rect>
<path d="M106.165 106.166H135.038V135.038H106.165V106.166ZM106.165 264.962H135.038V293.835H106.165V264.962ZM264.962 106.166H293.835V135.038H264.962V106.166ZM91.7292 207.218H120.601V236.09H91.7292V207.218ZM120.601 178.346H149.474V207.218H120.601V178.346ZM250.526 250.526H279.398V279.399H250.526V250.526ZM250.526 308.271H279.398V337.143H250.526V308.271ZM279.398 279.399H308.271V308.271H279.398V279.399ZM308.271 207.218H337.143V236.09H308.271V207.218ZM178.346 308.271H207.218V337.143H178.346V308.271Z" fill="black"></path>
<path d="M178.346 257.744V286.616H207.218V308.271H236.09V236.09H279.398V207.218H236.09V178.346H178.346V207.218H149.474V236.09H207.218V257.744H178.346ZM308.271 250.526H337.143V279.398H308.271V250.526ZM308.271 308.271H337.143V337.143H308.271V308.271ZM279.398 178.346H308.271V207.218H279.398V178.346Z" fill="black"></path>
<path d="M221.654 62.8569V178.346H337.143V62.8569H221.654ZM308.271 149.473H250.526V91.7291H308.271V149.473ZM62.8572 178.346H178.346V62.8569H62.8572V178.346ZM91.7294 91.7291H149.474V149.473H91.7294V91.7291ZM62.8572 337.143H178.346V221.654H62.8572V337.143ZM91.7294 250.526H149.474V308.27H91.7294V250.526Z" fill="black"></path>
</svg><style>@media (prefers-color-scheme: light) { :root { filter: none; } }
@media (prefers-color-scheme: dark) { :root { filter: none; } }
</style></svg>